<mxfile host="Electron" modified="2024-05-07T13:02:54.336Z" agent="Mozilla/5.0 (Windows NT 10.0; Win64; x64) AppleWebKit/537.36 (KHTML, like Gecko) draw.io/24.2.5 Chrome/120.0.6099.109 Electron/28.1.0 Safari/537.36" etag="RE1cOePSRhYwb-6fsrnl" version="24.2.5" type="device">
  <diagram name="ページ1" id="LE8fIzdrHe0wcv1LTvfw">
    <mxGraphModel dx="866" dy="518" grid="1" gridSize="10" guides="1" tooltips="1" connect="1" arrows="1" fold="1" page="1" pageScale="1" pageWidth="1600" pageHeight="1200" math="0" shadow="0">
      <root>
        <mxCell id="0" />
        <mxCell id="cFaB45KztUIKXS-_cTrr-4" value="背景" style="locked=1;" parent="0" visible="0" />
        <mxCell id="cFaB45KztUIKXS-_cTrr-5" value="" style="rounded=0;whiteSpace=wrap;html=1;strokeWidth=3;" parent="cFaB45KztUIKXS-_cTrr-4" vertex="1">
          <mxGeometry x="1" y="1" width="1595" height="1180" as="geometry" />
        </mxCell>
        <mxCell id="cFaB45KztUIKXS-_cTrr-6" value="" style="rounded=0;whiteSpace=wrap;html=1;fillColor=#B3B3B3;fontColor=#333333;strokeColor=#666666;" parent="cFaB45KztUIKXS-_cTrr-4" vertex="1">
          <mxGeometry width="1595" height="60" as="geometry" />
        </mxCell>
        <mxCell id="cFaB45KztUIKXS-_cTrr-7" value="&lt;font style=&quot;font-size: 48px;&quot;&gt;×&lt;/font&gt;" style="rounded=0;whiteSpace=wrap;html=1;" parent="cFaB45KztUIKXS-_cTrr-4" vertex="1">
          <mxGeometry x="1550" y="10" width="40" height="40" as="geometry" />
        </mxCell>
        <mxCell id="cFaB45KztUIKXS-_cTrr-8" value="" style="rounded=0;whiteSpace=wrap;html=1;" parent="cFaB45KztUIKXS-_cTrr-4" vertex="1">
          <mxGeometry x="830" y="670" width="120" height="60" as="geometry" />
        </mxCell>
        <mxCell id="cFaB45KztUIKXS-_cTrr-9" value="ウインドウ" style="locked=1;" parent="0" />
        <mxCell id="cFaB45KztUIKXS-_cTrr-10" value="" style="rounded=0;whiteSpace=wrap;html=1;strokeWidth=3;" parent="cFaB45KztUIKXS-_cTrr-9" vertex="1">
          <mxGeometry x="1" y="1" width="1589" height="1159" as="geometry" />
        </mxCell>
        <mxCell id="cFaB45KztUIKXS-_cTrr-11" value="" style="rounded=0;whiteSpace=wrap;html=1;fillColor=#B3B3B3;fontColor=#333333;strokeColor=#666666;" parent="cFaB45KztUIKXS-_cTrr-9" vertex="1">
          <mxGeometry width="1595" height="60" as="geometry" />
        </mxCell>
        <mxCell id="cFaB45KztUIKXS-_cTrr-12" value="&lt;font style=&quot;font-size: 48px;&quot;&gt;×&lt;/font&gt;" style="rounded=0;whiteSpace=wrap;html=1;" parent="cFaB45KztUIKXS-_cTrr-9" vertex="1">
          <mxGeometry x="1550" y="10" width="40" height="40" as="geometry" />
        </mxCell>
        <mxCell id="cFaB45KztUIKXS-_cTrr-14" value="名称未設定レイヤ" style="" parent="0" />
        <mxCell id="kxWkAaZomFuKM2yIZcbC-110" value="&lt;span style=&quot;font-size: 30px;&quot;&gt;結びつけ項目検索結果&lt;/span&gt;" style="rounded=0;whiteSpace=wrap;html=1;align=left;dashed=1;dashPattern=8 8;verticalAlign=bottom;" parent="cFaB45KztUIKXS-_cTrr-14" vertex="1">
          <mxGeometry x="30" y="86" width="310" height="46" as="geometry" />
        </mxCell>
        <mxCell id="cdmeLEnnqN9o7mxTk7t2-40" value="&lt;div style=&quot;&quot;&gt;&lt;font style=&quot;font-size: 30px;&quot;&gt;スクロール&lt;/font&gt;&lt;/div&gt;" style="rounded=0;whiteSpace=wrap;html=1;align=left;verticalAlign=top;fillColor=#FFFFCC;rotation=90;" parent="cFaB45KztUIKXS-_cTrr-14" vertex="1">
          <mxGeometry x="1106" y="225.5" width="199" height="49" as="geometry" />
        </mxCell>
        <mxCell id="glqgW6hR8bMLOD4vA2c3-0" value="" style="shape=table;startSize=0;container=1;collapsible=0;childLayout=tableLayout;fontSize=16;" parent="cFaB45KztUIKXS-_cTrr-14" vertex="1">
          <mxGeometry x="24" y="150.5" width="1156" height="200" as="geometry" />
        </mxCell>
        <mxCell id="glqgW6hR8bMLOD4vA2c3-1" value="" style="shape=tableRow;horizontal=0;startSize=0;swimlaneHead=0;swimlaneBody=0;strokeColor=inherit;top=0;left=0;bottom=0;right=0;collapsible=0;dropTarget=0;fillColor=none;points=[[0,0.5],[1,0.5]];portConstraint=eastwest;fontSize=16;" parent="glqgW6hR8bMLOD4vA2c3-0" vertex="1">
          <mxGeometry width="1156" height="40" as="geometry" />
        </mxCell>
        <mxCell id="glqgW6hR8bMLOD4vA2c3-2" value="" style="shape=partialRectangle;html=1;whiteSpace=wrap;connectable=0;strokeColor=inherit;overflow=hidden;fillColor=none;top=0;left=0;bottom=0;right=0;pointerEvents=1;fontSize=16;" parent="glqgW6hR8bMLOD4vA2c3-1" vertex="1">
          <mxGeometry width="50" height="40" as="geometry">
            <mxRectangle width="50" height="40" as="alternateBounds" />
          </mxGeometry>
        </mxCell>
        <mxCell id="glqgW6hR8bMLOD4vA2c3-3" value="&lt;font style=&quot;font-size: 30px;&quot;&gt;コード&lt;/font&gt;" style="shape=partialRectangle;html=1;whiteSpace=wrap;connectable=0;strokeColor=inherit;overflow=hidden;fillColor=none;top=0;left=0;bottom=0;right=0;pointerEvents=1;fontSize=16;" parent="glqgW6hR8bMLOD4vA2c3-1" vertex="1">
          <mxGeometry x="50" width="190" height="40" as="geometry">
            <mxRectangle width="190" height="40" as="alternateBounds" />
          </mxGeometry>
        </mxCell>
        <mxCell id="glqgW6hR8bMLOD4vA2c3-4" value="&lt;span style=&quot;font-size: 30px;&quot;&gt;摘要&lt;/span&gt;" style="shape=partialRectangle;html=1;whiteSpace=wrap;connectable=0;strokeColor=inherit;overflow=hidden;fillColor=none;top=0;left=0;bottom=0;right=0;pointerEvents=1;fontSize=16;" parent="glqgW6hR8bMLOD4vA2c3-1" vertex="1">
          <mxGeometry x="240" width="496" height="40" as="geometry">
            <mxRectangle width="496" height="40" as="alternateBounds" />
          </mxGeometry>
        </mxCell>
        <mxCell id="oonOLvMHX7fmjfL-FFEr-0" value="&lt;span style=&quot;font-size: 30px;&quot;&gt;様式区分&lt;/span&gt;" style="shape=partialRectangle;html=1;whiteSpace=wrap;connectable=0;strokeColor=inherit;overflow=hidden;fillColor=none;top=0;left=0;bottom=0;right=0;pointerEvents=1;fontSize=16;" parent="glqgW6hR8bMLOD4vA2c3-1" vertex="1">
          <mxGeometry x="736" width="210" height="40" as="geometry">
            <mxRectangle width="210" height="40" as="alternateBounds" />
          </mxGeometry>
        </mxCell>
        <mxCell id="oonOLvMHX7fmjfL-FFEr-5" value="&lt;span style=&quot;font-size: 30px;&quot;&gt;様式枝項目&lt;/span&gt;" style="shape=partialRectangle;html=1;whiteSpace=wrap;connectable=0;strokeColor=inherit;overflow=hidden;fillColor=none;top=0;left=0;bottom=0;right=0;pointerEvents=1;fontSize=16;" parent="glqgW6hR8bMLOD4vA2c3-1" vertex="1">
          <mxGeometry x="946" width="210" height="40" as="geometry">
            <mxRectangle width="210" height="40" as="alternateBounds" />
          </mxGeometry>
        </mxCell>
        <mxCell id="glqgW6hR8bMLOD4vA2c3-7" value="" style="shape=tableRow;horizontal=0;startSize=0;swimlaneHead=0;swimlaneBody=0;strokeColor=inherit;top=0;left=0;bottom=0;right=0;collapsible=0;dropTarget=0;fillColor=none;points=[[0,0.5],[1,0.5]];portConstraint=eastwest;fontSize=16;" parent="glqgW6hR8bMLOD4vA2c3-0" vertex="1">
          <mxGeometry y="40" width="1156" height="40" as="geometry" />
        </mxCell>
        <mxCell id="glqgW6hR8bMLOD4vA2c3-8" value="" style="shape=partialRectangle;html=1;whiteSpace=wrap;connectable=0;strokeColor=inherit;overflow=hidden;fillColor=none;top=0;left=0;bottom=0;right=0;pointerEvents=1;fontSize=16;" parent="glqgW6hR8bMLOD4vA2c3-7" vertex="1">
          <mxGeometry width="50" height="40" as="geometry">
            <mxRectangle width="50" height="40" as="alternateBounds" />
          </mxGeometry>
        </mxCell>
        <mxCell id="glqgW6hR8bMLOD4vA2c3-9" value="&lt;font style=&quot;font-size: 30px;&quot;&gt;1122&lt;/font&gt;" style="shape=partialRectangle;html=1;whiteSpace=wrap;connectable=0;strokeColor=inherit;overflow=hidden;fillColor=none;top=0;left=0;bottom=0;right=0;pointerEvents=1;fontSize=16;" parent="glqgW6hR8bMLOD4vA2c3-7" vertex="1">
          <mxGeometry x="50" width="190" height="40" as="geometry">
            <mxRectangle width="190" height="40" as="alternateBounds" />
          </mxGeometry>
        </mxCell>
        <mxCell id="glqgW6hR8bMLOD4vA2c3-10" value="&lt;span style=&quot;font-size: 30px;&quot;&gt;借入金　太郎さんへの貸付&lt;/span&gt;" style="shape=partialRectangle;html=1;whiteSpace=wrap;connectable=0;strokeColor=inherit;overflow=hidden;fillColor=none;top=0;left=0;bottom=0;right=0;pointerEvents=1;fontSize=16;align=left;" parent="glqgW6hR8bMLOD4vA2c3-7" vertex="1">
          <mxGeometry x="240" width="496" height="40" as="geometry">
            <mxRectangle width="496" height="40" as="alternateBounds" />
          </mxGeometry>
        </mxCell>
        <mxCell id="oonOLvMHX7fmjfL-FFEr-1" value="&lt;span style=&quot;font-size: 30px; text-align: center;&quot;&gt;4.借入金&lt;/span&gt;" style="shape=partialRectangle;html=1;whiteSpace=wrap;connectable=0;strokeColor=inherit;overflow=hidden;fillColor=none;top=0;left=0;bottom=0;right=0;pointerEvents=1;fontSize=16;align=left;" parent="glqgW6hR8bMLOD4vA2c3-7" vertex="1">
          <mxGeometry x="736" width="210" height="40" as="geometry">
            <mxRectangle width="210" height="40" as="alternateBounds" />
          </mxGeometry>
        </mxCell>
        <mxCell id="oonOLvMHX7fmjfL-FFEr-6" value="" style="shape=partialRectangle;html=1;whiteSpace=wrap;connectable=0;strokeColor=inherit;overflow=hidden;fillColor=none;top=0;left=0;bottom=0;right=0;pointerEvents=1;fontSize=16;align=left;" parent="glqgW6hR8bMLOD4vA2c3-7" vertex="1">
          <mxGeometry x="946" width="210" height="40" as="geometry">
            <mxRectangle width="210" height="40" as="alternateBounds" />
          </mxGeometry>
        </mxCell>
        <mxCell id="glqgW6hR8bMLOD4vA2c3-13" value="" style="shape=tableRow;horizontal=0;startSize=0;swimlaneHead=0;swimlaneBody=0;strokeColor=inherit;top=0;left=0;bottom=0;right=0;collapsible=0;dropTarget=0;fillColor=none;points=[[0,0.5],[1,0.5]];portConstraint=eastwest;fontSize=16;align=left;" parent="glqgW6hR8bMLOD4vA2c3-0" vertex="1">
          <mxGeometry y="80" width="1156" height="40" as="geometry" />
        </mxCell>
        <mxCell id="glqgW6hR8bMLOD4vA2c3-14" value="" style="shape=partialRectangle;html=1;whiteSpace=wrap;connectable=0;strokeColor=inherit;overflow=hidden;fillColor=none;top=0;left=0;bottom=0;right=0;pointerEvents=1;fontSize=16;" parent="glqgW6hR8bMLOD4vA2c3-13" vertex="1">
          <mxGeometry width="50" height="40" as="geometry">
            <mxRectangle width="50" height="40" as="alternateBounds" />
          </mxGeometry>
        </mxCell>
        <mxCell id="glqgW6hR8bMLOD4vA2c3-15" value="&lt;font style=&quot;font-size: 30px;&quot;&gt;3344&lt;/font&gt;" style="shape=partialRectangle;html=1;whiteSpace=wrap;connectable=0;strokeColor=inherit;overflow=hidden;fillColor=none;top=0;left=0;bottom=0;right=0;pointerEvents=1;fontSize=16;" parent="glqgW6hR8bMLOD4vA2c3-13" vertex="1">
          <mxGeometry x="50" width="190" height="40" as="geometry">
            <mxRectangle width="190" height="40" as="alternateBounds" />
          </mxGeometry>
        </mxCell>
        <mxCell id="glqgW6hR8bMLOD4vA2c3-16" value="&lt;font style=&quot;font-size: 30px;&quot;&gt;ﾌﾘｺﾐ ｾｲｼﾞｶ ﾊﾅｺ&lt;/font&gt;" style="shape=partialRectangle;html=1;whiteSpace=wrap;connectable=0;strokeColor=inherit;overflow=hidden;fillColor=none;top=0;left=0;bottom=0;right=0;pointerEvents=1;fontSize=16;align=left;" parent="glqgW6hR8bMLOD4vA2c3-13" vertex="1">
          <mxGeometry x="240" width="496" height="40" as="geometry">
            <mxRectangle width="496" height="40" as="alternateBounds" />
          </mxGeometry>
        </mxCell>
        <mxCell id="oonOLvMHX7fmjfL-FFEr-2" value="&lt;span style=&quot;font-size: 30px; text-align: center;&quot;&gt;7.寄付&lt;/span&gt;" style="shape=partialRectangle;html=1;whiteSpace=wrap;connectable=0;strokeColor=inherit;overflow=hidden;fillColor=none;top=0;left=0;bottom=0;right=0;pointerEvents=1;fontSize=16;align=left;" parent="glqgW6hR8bMLOD4vA2c3-13" vertex="1">
          <mxGeometry x="736" width="210" height="40" as="geometry">
            <mxRectangle width="210" height="40" as="alternateBounds" />
          </mxGeometry>
        </mxCell>
        <mxCell id="oonOLvMHX7fmjfL-FFEr-7" value="&lt;div style=&quot;text-align: center;&quot;&gt;&lt;span style=&quot;font-size: 30px;&quot;&gt;法人&lt;/span&gt;&lt;/div&gt;" style="shape=partialRectangle;html=1;whiteSpace=wrap;connectable=0;strokeColor=inherit;overflow=hidden;fillColor=none;top=0;left=0;bottom=0;right=0;pointerEvents=1;fontSize=16;align=left;" parent="glqgW6hR8bMLOD4vA2c3-13" vertex="1">
          <mxGeometry x="946" width="210" height="40" as="geometry">
            <mxRectangle width="210" height="40" as="alternateBounds" />
          </mxGeometry>
        </mxCell>
        <mxCell id="glqgW6hR8bMLOD4vA2c3-19" style="shape=tableRow;horizontal=0;startSize=0;swimlaneHead=0;swimlaneBody=0;strokeColor=inherit;top=0;left=0;bottom=0;right=0;collapsible=0;dropTarget=0;fillColor=none;points=[[0,0.5],[1,0.5]];portConstraint=eastwest;fontSize=16;" parent="glqgW6hR8bMLOD4vA2c3-0" vertex="1">
          <mxGeometry y="120" width="1156" height="40" as="geometry" />
        </mxCell>
        <mxCell id="glqgW6hR8bMLOD4vA2c3-20" style="shape=partialRectangle;html=1;whiteSpace=wrap;connectable=0;strokeColor=inherit;overflow=hidden;fillColor=none;top=0;left=0;bottom=0;right=0;pointerEvents=1;fontSize=16;" parent="glqgW6hR8bMLOD4vA2c3-19" vertex="1">
          <mxGeometry width="50" height="40" as="geometry">
            <mxRectangle width="50" height="40" as="alternateBounds" />
          </mxGeometry>
        </mxCell>
        <mxCell id="glqgW6hR8bMLOD4vA2c3-21" value="&lt;font style=&quot;font-size: 30px;&quot;&gt;4455&lt;/font&gt;" style="shape=partialRectangle;html=1;whiteSpace=wrap;connectable=0;strokeColor=inherit;overflow=hidden;fillColor=none;top=0;left=0;bottom=0;right=0;pointerEvents=1;fontSize=16;" parent="glqgW6hR8bMLOD4vA2c3-19" vertex="1">
          <mxGeometry x="50" width="190" height="40" as="geometry">
            <mxRectangle width="190" height="40" as="alternateBounds" />
          </mxGeometry>
        </mxCell>
        <mxCell id="glqgW6hR8bMLOD4vA2c3-22" value="&lt;span style=&quot;font-size: 30px;&quot;&gt;首都圏でんき&lt;/span&gt;" style="shape=partialRectangle;html=1;whiteSpace=wrap;connectable=0;strokeColor=inherit;overflow=hidden;fillColor=none;top=0;left=0;bottom=0;right=0;pointerEvents=1;fontSize=16;align=left;" parent="glqgW6hR8bMLOD4vA2c3-19" vertex="1">
          <mxGeometry x="240" width="496" height="40" as="geometry">
            <mxRectangle width="496" height="40" as="alternateBounds" />
          </mxGeometry>
        </mxCell>
        <mxCell id="oonOLvMHX7fmjfL-FFEr-3" value="&lt;span style=&quot;font-size: 30px; text-align: center;&quot;&gt;14.必要経費&lt;/span&gt;" style="shape=partialRectangle;html=1;whiteSpace=wrap;connectable=0;strokeColor=inherit;overflow=hidden;fillColor=none;top=0;left=0;bottom=0;right=0;pointerEvents=1;fontSize=16;align=left;" parent="glqgW6hR8bMLOD4vA2c3-19" vertex="1">
          <mxGeometry x="736" width="210" height="40" as="geometry">
            <mxRectangle width="210" height="40" as="alternateBounds" />
          </mxGeometry>
        </mxCell>
        <mxCell id="oonOLvMHX7fmjfL-FFEr-8" value="&lt;span style=&quot;font-size: 30px; text-align: center;&quot;&gt;光熱水費&lt;/span&gt;" style="shape=partialRectangle;html=1;whiteSpace=wrap;connectable=0;strokeColor=inherit;overflow=hidden;fillColor=none;top=0;left=0;bottom=0;right=0;pointerEvents=1;fontSize=16;align=left;" parent="glqgW6hR8bMLOD4vA2c3-19" vertex="1">
          <mxGeometry x="946" width="210" height="40" as="geometry">
            <mxRectangle width="210" height="40" as="alternateBounds" />
          </mxGeometry>
        </mxCell>
        <mxCell id="glqgW6hR8bMLOD4vA2c3-25" style="shape=tableRow;horizontal=0;startSize=0;swimlaneHead=0;swimlaneBody=0;strokeColor=inherit;top=0;left=0;bottom=0;right=0;collapsible=0;dropTarget=0;fillColor=none;points=[[0,0.5],[1,0.5]];portConstraint=eastwest;fontSize=16;" parent="glqgW6hR8bMLOD4vA2c3-0" vertex="1">
          <mxGeometry y="160" width="1156" height="40" as="geometry" />
        </mxCell>
        <mxCell id="glqgW6hR8bMLOD4vA2c3-26" style="shape=partialRectangle;html=1;whiteSpace=wrap;connectable=0;strokeColor=inherit;overflow=hidden;fillColor=none;top=0;left=0;bottom=0;right=0;pointerEvents=1;fontSize=16;" parent="glqgW6hR8bMLOD4vA2c3-25" vertex="1">
          <mxGeometry width="50" height="40" as="geometry">
            <mxRectangle width="50" height="40" as="alternateBounds" />
          </mxGeometry>
        </mxCell>
        <mxCell id="glqgW6hR8bMLOD4vA2c3-27" value="&lt;font style=&quot;font-size: 30px;&quot;&gt;5566&lt;/font&gt;" style="shape=partialRectangle;html=1;whiteSpace=wrap;connectable=0;strokeColor=inherit;overflow=hidden;fillColor=none;top=0;left=0;bottom=0;right=0;pointerEvents=1;fontSize=16;" parent="glqgW6hR8bMLOD4vA2c3-25" vertex="1">
          <mxGeometry x="50" width="190" height="40" as="geometry">
            <mxRectangle width="190" height="40" as="alternateBounds" />
          </mxGeometry>
        </mxCell>
        <mxCell id="glqgW6hR8bMLOD4vA2c3-28" value="&lt;font style=&quot;font-size: 30px;&quot;&gt;機関誌「理想」発行&lt;/font&gt;" style="shape=partialRectangle;html=1;whiteSpace=wrap;connectable=0;strokeColor=inherit;overflow=hidden;fillColor=none;top=0;left=0;bottom=0;right=0;pointerEvents=1;fontSize=16;align=left;" parent="glqgW6hR8bMLOD4vA2c3-25" vertex="1">
          <mxGeometry x="240" width="496" height="40" as="geometry">
            <mxRectangle width="496" height="40" as="alternateBounds" />
          </mxGeometry>
        </mxCell>
        <mxCell id="oonOLvMHX7fmjfL-FFEr-4" value="&lt;span style=&quot;font-size: 30px; text-align: center;&quot;&gt;15.政治活動費&lt;/span&gt;" style="shape=partialRectangle;html=1;whiteSpace=wrap;connectable=0;strokeColor=inherit;overflow=hidden;fillColor=none;top=0;left=0;bottom=0;right=0;pointerEvents=1;fontSize=16;align=left;" parent="glqgW6hR8bMLOD4vA2c3-25" vertex="1">
          <mxGeometry x="736" width="210" height="40" as="geometry">
            <mxRectangle width="210" height="40" as="alternateBounds" />
          </mxGeometry>
        </mxCell>
        <mxCell id="oonOLvMHX7fmjfL-FFEr-9" value="&lt;span style=&quot;font-size: 30px; text-align: center;&quot;&gt;機関誌発行&lt;/span&gt;" style="shape=partialRectangle;html=1;whiteSpace=wrap;connectable=0;strokeColor=inherit;overflow=hidden;fillColor=none;top=0;left=0;bottom=0;right=0;pointerEvents=1;fontSize=16;align=left;" parent="glqgW6hR8bMLOD4vA2c3-25" vertex="1">
          <mxGeometry x="946" width="210" height="40" as="geometry">
            <mxRectangle width="210" height="40" as="alternateBounds" />
          </mxGeometry>
        </mxCell>
        <mxCell id="glqgW6hR8bMLOD4vA2c3-37" value="&lt;font style=&quot;font-size: 84px;&quot;&gt;○&lt;/font&gt;" style="text;html=1;strokeColor=none;fillColor=none;align=center;verticalAlign=middle;whiteSpace=wrap;rounded=0;fontSize=60;" parent="cFaB45KztUIKXS-_cTrr-14" vertex="1">
          <mxGeometry x="25" y="191" width="60" height="30" as="geometry" />
        </mxCell>
        <mxCell id="glqgW6hR8bMLOD4vA2c3-38" value="&lt;font style=&quot;font-size: 84px;&quot;&gt;○&lt;/font&gt;" style="text;html=1;strokeColor=none;fillColor=none;align=center;verticalAlign=middle;whiteSpace=wrap;rounded=0;fontSize=60;" parent="cFaB45KztUIKXS-_cTrr-14" vertex="1">
          <mxGeometry x="25" y="230" width="60" height="30" as="geometry" />
        </mxCell>
        <mxCell id="glqgW6hR8bMLOD4vA2c3-39" value="&lt;font style=&quot;font-size: 84px;&quot;&gt;○&lt;/font&gt;" style="text;html=1;strokeColor=none;fillColor=none;align=center;verticalAlign=middle;whiteSpace=wrap;rounded=0;fontSize=60;" parent="cFaB45KztUIKXS-_cTrr-14" vertex="1">
          <mxGeometry x="24" y="270" width="60" height="30" as="geometry" />
        </mxCell>
        <mxCell id="glqgW6hR8bMLOD4vA2c3-40" value="&lt;font style=&quot;font-size: 48px;&quot;&gt;●&lt;/font&gt;" style="text;html=1;strokeColor=none;fillColor=none;align=center;verticalAlign=middle;whiteSpace=wrap;rounded=0;fontSize=48;" parent="cFaB45KztUIKXS-_cTrr-14" vertex="1">
          <mxGeometry x="24" y="272" width="60" height="30" as="geometry" />
        </mxCell>
        <mxCell id="glqgW6hR8bMLOD4vA2c3-41" value="&lt;font style=&quot;font-size: 84px;&quot;&gt;○&lt;/font&gt;" style="text;html=1;strokeColor=none;fillColor=none;align=center;verticalAlign=middle;whiteSpace=wrap;rounded=0;fontSize=60;" parent="cFaB45KztUIKXS-_cTrr-14" vertex="1">
          <mxGeometry x="25" y="310" width="60" height="30" as="geometry" />
        </mxCell>
        <mxCell id="oonOLvMHX7fmjfL-FFEr-10" value="&lt;span style=&quot;font-size: 30px;&quot;&gt;保存&lt;/span&gt;" style="rounded=1;whiteSpace=wrap;html=1;strokeWidth=3;" parent="cFaB45KztUIKXS-_cTrr-14" vertex="1">
          <mxGeometry x="1350" y="1040" width="210" height="60" as="geometry" />
        </mxCell>
        <mxCell id="oonOLvMHX7fmjfL-FFEr-11" value="&lt;span style=&quot;font-size: 30px;&quot;&gt;キャンセル&lt;/span&gt;" style="rounded=1;whiteSpace=wrap;html=1;strokeWidth=3;" parent="cFaB45KztUIKXS-_cTrr-14" vertex="1">
          <mxGeometry x="1120" y="1040" width="210" height="60" as="geometry" />
        </mxCell>
      </root>
    </mxGraphModel>
  </diagram>
</mxfile>
